<svg width="160" height="54" viewBox="0 0 160 54" fill="none" xmlns="http://www.w3.org/2000/svg">
<rect x="0.5" y="0.5" width="159" height="53" rx="7.5" stroke="white"/>
<path d="M31.72 34.22C30.2533 34.22 28.9867 33.9 27.92 33.26C26.8667 32.6067 26.0667 31.7133 25.52 30.58C24.9733 29.4467 24.7 28.1667 24.7 26.74C24.7 25.1 25.0133 23.6933 25.64 22.52C26.28 21.3467 27.18 20.46 28.34 19.86C29.5 19.26 30.8533 18.96 32.4 18.96C33.8533 18.96 35.4867 19.1667 37.3 19.58L37.08 23.3H35.06L34.52 20.74C34.3867 20.6067 34.1333 20.4867 33.76 20.38C33.3867 20.26 32.9 20.2 32.3 20.2C30.9933 20.2 29.9667 20.7333 29.22 21.8C28.4733 22.8533 28.1 24.38 28.1 26.38C28.1 28.34 28.42 29.9267 29.06 31.14C29.7 32.34 30.6733 32.94 31.98 32.94C32.5133 32.94 33.0133 32.8733 33.48 32.74C33.9467 32.6067 34.3 32.4333 34.54 32.22V27.92L32.42 27.72V26.38H38.5V27.72L37.44 27.9V33.2C37.16 33.2133 36.6533 33.3267 35.92 33.54C35.0667 33.7667 34.3333 33.9333 33.72 34.04C33.12 34.16 32.4533 34.22 31.72 34.22ZM44.8228 34.22C43.0628 34.22 41.7495 33.7067 40.8828 32.68C40.0295 31.64 39.6028 30.2267 39.6028 28.44C39.6028 27.24 39.8228 26.2 40.2628 25.32C40.7161 24.44 41.3495 23.7667 42.1628 23.3C42.9761 22.8333 43.9161 22.6 44.9828 22.6C46.3161 22.6 47.3428 22.9533 48.0628 23.66C48.7828 24.3533 49.1561 25.3467 49.1828 26.64C49.1828 27.52 49.1295 28.1733 49.0228 28.6H42.5228C42.5761 29.8133 42.8628 30.76 43.3828 31.44C43.9028 32.1067 44.6428 32.44 45.6028 32.44C46.1228 32.44 46.6561 32.3533 47.2028 32.18C47.7628 32.0067 48.2028 31.8 48.5228 31.56L49.0228 32.66C48.6628 33.0467 48.0761 33.4067 47.2628 33.74C46.4628 34.06 45.6495 34.22 44.8228 34.22ZM46.3828 27.4C46.4095 27.0267 46.4228 26.74 46.4228 26.54C46.4228 24.7667 45.8295 23.88 44.6428 23.88C43.9895 23.88 43.4828 24.14 43.1228 24.66C42.7628 25.18 42.5628 26.0933 42.5228 27.4H46.3828ZM54.1389 34.18C53.2989 34.18 52.6789 33.9867 52.2789 33.6C51.8789 33.2133 51.6789 32.6 51.6789 31.76V24.42H50.3789V23.38C50.4856 23.34 50.6789 23.2733 50.9589 23.18C51.2389 23.0733 51.4522 22.9867 51.5989 22.92C51.8256 22.7467 52.0189 22.4467 52.1789 22.02C52.2989 21.74 52.5189 21.0467 52.8389 19.94H54.4389L54.5189 22.88H57.5789V24.42H54.5389V30.04C54.5389 30.7867 54.5589 31.3133 54.5989 31.62C54.6389 31.9267 54.7256 32.1267 54.8589 32.22C54.9922 32.3 55.2256 32.34 55.5589 32.34C55.8922 32.34 56.2389 32.3067 56.5989 32.24C56.9589 32.16 57.2589 32.0667 57.4989 31.96L57.8789 33.08C57.5056 33.36 56.9589 33.6133 56.2389 33.84C55.5189 34.0667 54.8189 34.18 54.1389 34.18ZM68.7291 34.22C68.0091 34.22 67.3624 34.16 66.7891 34.04C66.2157 33.92 65.5757 33.76 64.8691 33.56C64.4024 33.4267 64.0891 33.3533 63.9291 33.34L64.1091 29.64H65.7291L66.1691 32.22C66.3424 32.4067 66.6491 32.5733 67.0891 32.72C67.5424 32.8667 68.0557 32.94 68.6291 32.94C69.5224 32.94 70.1891 32.7467 70.6291 32.36C71.0824 31.96 71.3091 31.4067 71.3091 30.7C71.3091 30.2333 71.1757 29.8333 70.9091 29.5C70.6424 29.1533 70.2757 28.8467 69.8091 28.58C69.3424 28.3 68.7024 27.98 67.8891 27.62C66.7824 27.1133 65.8624 26.5133 65.1291 25.82C64.4091 25.1133 64.0491 24.16 64.0491 22.96C64.0491 22.2133 64.2424 21.54 64.6291 20.94C65.0157 20.3267 65.5891 19.8467 66.3491 19.5C67.1224 19.14 68.0624 18.96 69.1691 18.96C69.8224 18.96 70.3957 19.0067 70.8891 19.1C71.3957 19.1933 71.9424 19.32 72.5291 19.48C72.8757 19.5733 73.1357 19.6333 73.3091 19.66L73.1891 23.16H71.5891L71.1691 20.7C71.0491 20.58 70.8091 20.4667 70.4491 20.36C70.0891 20.24 69.6891 20.18 69.2491 20.18C68.4491 20.18 67.8424 20.3667 67.4291 20.74C67.0291 21.1 66.8291 21.5867 66.8291 22.2C66.8291 22.6933 66.9757 23.12 67.2691 23.48C67.5757 23.84 67.9424 24.1467 68.3691 24.4C68.7957 24.64 69.4691 24.9867 70.3891 25.44C71.1357 25.8 71.7757 26.1533 72.3091 26.5C72.8424 26.8467 73.3024 27.3 73.6891 27.86C74.0757 28.4067 74.2691 29.0533 74.2691 29.8C74.2691 30.5333 74.0824 31.2333 73.7091 31.9C73.3491 32.5667 72.7491 33.12 71.9091 33.56C71.0824 34 70.0224 34.22 68.7291 34.22ZM79.0998 34.18C78.2598 34.18 77.6398 33.9867 77.2398 33.6C76.8398 33.2133 76.6398 32.6 76.6398 31.76V24.42H75.3398V23.38C75.4465 23.34 75.6398 23.2733 75.9198 23.18C76.1998 23.0733 76.4132 22.9867 76.5598 22.92C76.7865 22.7467 76.9798 22.4467 77.1398 22.02C77.2598 21.74 77.4798 21.0467 77.7998 19.94H79.3998L79.4798 22.88H82.5398V24.42H79.4998V30.04C79.4998 30.7867 79.5198 31.3133 79.5598 31.62C79.5998 31.9267 79.6865 32.1267 79.8198 32.22C79.9532 32.3 80.1865 32.34 80.5198 32.34C80.8532 32.34 81.1998 32.3067 81.5598 32.24C81.9198 32.16 82.2198 32.0667 82.4598 31.96L82.8398 33.08C82.4665 33.36 81.9198 33.6133 81.1998 33.84C80.4798 34.0667 79.7798 34.18 79.0998 34.18ZM83.6839 30.88C83.6839 29.6667 84.2906 28.7533 85.5039 28.14C86.7306 27.5267 88.3106 27.2133 90.2439 27.2V26.74C90.2439 26.1933 90.1839 25.7667 90.0639 25.46C89.9572 25.1533 89.7506 24.9267 89.4439 24.78C89.1506 24.62 88.7172 24.54 88.1439 24.54C87.4906 24.54 86.9039 24.6267 86.3839 24.8C85.8639 24.96 85.3239 25.1733 84.7639 25.44L84.1439 24.16C84.3439 23.9867 84.6772 23.78 85.1439 23.54C85.6239 23.3 86.1906 23.0933 86.8439 22.92C87.4972 22.7333 88.1706 22.64 88.8639 22.64C89.8906 22.64 90.6906 22.7733 91.2639 23.04C91.8506 23.3067 92.2706 23.7333 92.5239 24.32C92.7772 24.9067 92.9039 25.6933 92.9039 26.68V32.8H93.9839V33.92C93.7172 33.9867 93.3372 34.0533 92.8439 34.12C92.3506 34.1867 91.9172 34.22 91.5439 34.22C91.0906 34.22 90.7839 34.1533 90.6239 34.02C90.4772 33.8867 90.4039 33.6133 90.4039 33.2V32.66C90.0439 33.06 89.5772 33.42 89.0039 33.74C88.4306 34.06 87.7839 34.22 87.0639 34.22C86.4506 34.22 85.8839 34.0933 85.3639 33.84C84.8572 33.5733 84.4506 33.1933 84.1439 32.7C83.8372 32.1933 83.6839 31.5867 83.6839 30.88ZM88.3439 32.56C88.6239 32.56 88.9439 32.48 89.3039 32.32C89.6639 32.1467 89.9772 31.94 90.2439 31.7V28.42C89.0439 28.42 88.1439 28.6267 87.5439 29.04C86.9572 29.44 86.6639 29.96 86.6639 30.6C86.6639 31.24 86.8106 31.7267 87.1039 32.06C87.4106 32.3933 87.8239 32.56 88.3439 32.56ZM95.232 32.82L96.552 32.66V24.78L95.272 24.42V23.04L98.372 22.62H98.432L98.932 23.02V23.46L98.872 25.08H98.932C99.0254 24.8133 99.2454 24.4867 99.592 24.1C99.9387 23.7 100.372 23.3533 100.892 23.06C101.425 22.7533 101.999 22.6 102.612 22.6C102.905 22.6 103.159 22.64 103.372 22.72V25.72C102.972 25.44 102.485 25.3 101.912 25.3C100.939 25.3 100.092 25.56 99.372 26.08V32.64L101.692 32.82V34H95.232V32.82ZM108.006 34.18C107.166 34.18 106.546 33.9867 106.146 33.6C105.746 33.2133 105.546 32.6 105.546 31.76V24.42H104.246V23.38C104.353 23.34 104.546 23.2733 104.826 23.18C105.106 23.0733 105.319 22.9867 105.466 22.92C105.693 22.7467 105.886 22.4467 106.046 22.02C106.166 21.74 106.386 21.0467 106.706 19.94H108.306L108.386 22.88H111.446V24.42H108.406V30.04C108.406 30.7867 108.426 31.3133 108.466 31.62C108.506 31.9267 108.593 32.1267 108.726 32.22C108.859 32.3 109.093 32.34 109.426 32.34C109.759 32.34 110.106 32.3067 110.466 32.24C110.826 32.16 111.126 32.0667 111.366 31.96L111.746 33.08C111.373 33.36 110.826 33.6133 110.106 33.84C109.386 34.0667 108.686 34.18 108.006 34.18ZM117.85 34.22C116.09 34.22 114.777 33.7067 113.91 32.68C113.057 31.64 112.63 30.2267 112.63 28.44C112.63 27.24 112.85 26.2 113.29 25.32C113.743 24.44 114.377 23.7667 115.19 23.3C116.003 22.8333 116.943 22.6 118.01 22.6C119.343 22.6 120.37 22.9533 121.09 23.66C121.81 24.3533 122.183 25.3467 122.21 26.64C122.21 27.52 122.157 28.1733 122.05 28.6H115.55C115.603 29.8133 115.89 30.76 116.41 31.44C116.93 32.1067 117.67 32.44 118.63 32.44C119.15 32.44 119.683 32.3533 120.23 32.18C120.79 32.0067 121.23 31.8 121.55 31.56L122.05 32.66C121.69 33.0467 121.103 33.4067 120.29 33.74C119.49 34.06 118.677 34.22 117.85 34.22ZM119.41 27.4C119.437 27.0267 119.45 26.74 119.45 26.54C119.45 24.7667 118.857 23.88 117.67 23.88C117.017 23.88 116.51 24.14 116.15 24.66C115.79 25.18 115.59 26.0933 115.55 27.4H119.41ZM127.986 34.22C127.16 34.22 126.42 34.0267 125.766 33.64C125.113 33.24 124.593 32.6267 124.206 31.8C123.82 30.9733 123.626 29.94 123.626 28.7C123.626 27.58 123.853 26.56 124.306 25.64C124.773 24.7067 125.453 23.9667 126.346 23.42C127.24 22.8733 128.313 22.6 129.566 22.6C130.073 22.6 130.553 22.6533 131.006 22.76V19.38L129.046 19.1V18L133.166 17.6H133.226L133.786 18.02V32.78H134.866V33.92C133.906 34.12 133.113 34.22 132.486 34.22C132.06 34.22 131.753 34.1467 131.566 34C131.393 33.8667 131.306 33.5933 131.306 33.18V32.62C130.96 33.0867 130.486 33.4733 129.886 33.78C129.286 34.0733 128.653 34.22 127.986 34.22ZM129.026 32.56C129.466 32.56 129.853 32.4733 130.186 32.3C130.533 32.1133 130.806 31.8933 131.006 31.64V24.36C130.913 24.2267 130.713 24.1133 130.406 24.02C130.113 23.9267 129.793 23.88 129.446 23.88C128.593 23.88 127.906 24.2533 127.386 25C126.88 25.7333 126.626 26.9133 126.626 28.54C126.626 29.9 126.846 30.9133 127.286 31.58C127.726 32.2333 128.306 32.56 129.026 32.56Z" fill="white"/>
</svg>
